<svg xmlns="http://www.w3.org/2000/svg" version="1.1" xmlns:xlink="http://www.w3.org/1999/xlink" xmlns:svgjs="http://svgjs.dev/svgjs" width="1000" height="942" viewBox="0 0 1000 942"><g transform="matrix(1,0,0,1,0.12796136816234593,0.3813781450850797)"><svg viewBox="0 0 262 247" data-background-color="#121860" preserveAspectRatio="xMidYMid meet" height="942" width="1000" xmlns="http://www.w3.org/2000/svg" xmlns:xlink="http://www.w3.org/1999/xlink"><g id="tight-bounds" transform="matrix(1,0,0,1,-0.0335258784585335,-0.10000042657750896)"><svg viewBox="0 0 262.06704692592314 247.2" height="247.2" width="262.06704692592314"><g><svg viewBox="0 0 395.52 373.08217552295594" height="247.2" width="262.06704692592314"><g transform="matrix(1,0,0,1,0,256.7530533329194)"><svg viewBox="0 0 395.52 116.32912219003649" height="116.32912219003649" width="395.52"><g id="textblocktransform"><svg viewBox="0 0 395.52 116.32912219003649" height="116.32912219003649" width="395.52" id="textblock"><g><svg viewBox="0 0 395.52 62.74236988669099" height="62.74236988669099" width="395.52"><g transform="matrix(1,0,0,1,0,0)"><svg width="395.52" viewBox="1.2999999523162842 -40.29999923706055 260.34002685546875 41.29999923706055" height="62.74236988669099" data-palette-color="#77d4fc"><path d="M24.3-39.8Q30.05-39.8 34.5-37.33 38.95-34.85 41.38-30.45 43.8-26.05 43.8-20.5L43.8-20.5Q43.8-14.8 40.15-9.98 36.5-5.15 31.08-2.33 25.65 0.5 20.75 0.5L20.75 0.5Q18.55 0.5 16.3 0.25L16.3 0.25Q12.55 0 10.55 0L10.55 0 2.2 0 2.2-3.2 6.9-6.9 6.9-34 1.3-35.7 3.1-39.3 10.5-39.3Q15.1-39.3 19.5-39.6L19.5-39.6Q22.8-39.8 24.3-39.8L24.3-39.8ZM22.2-4.35Q25.2-4.35 27.7-6.15 30.2-7.95 31.63-11.08 33.05-14.2 33.05-18.1L33.05-18.1Q33.05-22.75 31.68-26.58 30.3-30.4 27.48-32.68 24.65-34.95 20.45-34.95L20.45-34.95Q18.5-34.95 16.8-33.95L16.8-33.95 16.8-5.25Q19.1-4.4 22.15-4.4L22.15-4.4 22.2-4.35ZM84.65 0.9L80.75 0 48.7 0 48.7-3.2 53.4-6.9 53.4-34.1 47.8-35.7 49.6-39.3 80.25-39.3 84.15-40.2 84.15-27.1 81-25.75 74.8-35 63.3-35 63.3-22.2 68.7-22.2 72.35-27.6 75.55-27.6 75.55-13.2 71.9-11.4 68.6-17.95 63.3-17.95 63.3-4.3 74.35-4.3 81.5-14.55 84.65-13.25 84.65 0.9ZM134.09-36.15L128.5-31.95 116.05-1.6 106.39 0.95 92.34-33.25 87.19-35.7 89-39.3 108.69-39.3 108.69-36.15 102.94-32.95 113.3-7.6 123.19-31.95 115.84-35.7 117.69-39.3 134.09-39.3 134.09-36.15ZM159.89-40.3Q162.89-40.3 166.89-39.55 170.89-38.8 172.74-37.95L172.74-37.95 172.74-27.05 167.19-27.05Q163.44-34.05 156.99-34.05L156.99-34.05Q154.39-34.05 152.24-32.38 150.09-30.7 148.84-27.75 147.59-24.8 147.59-21.15L147.59-21.15Q147.59-17 148.84-13.58 150.09-10.15 152.67-8.13 155.24-6.1 159.04-6.1L159.04-6.1Q163.69-6.1 172.24-10.7L172.24-10.7 174.39-7.25 165.19-0.1Q162.89 0.55 160.79 0.78 158.69 1 156.24 1L156.24 1Q150.54 1 146.12-1.55 141.69-4.1 139.24-8.58 136.79-13.05 136.79-18.75L136.79-18.75Q136.79-24.6 140.44-29.58 144.09-34.55 149.54-37.43 154.99-40.3 159.89-40.3L159.89-40.3ZM220.39-36.15L215.64-32.45 215.64-15.5Q215.64-10.25 213.01-6.5 210.39-2.75 206.47-0.88 202.54 1 198.84 1L198.84 1Q193.94 1 190.04-0.98 186.14-2.95 183.97-6.43 181.79-9.9 181.79-14.25L181.79-14.25 181.79-34.3 176.14-35.7 177.99-39.3 196.44-39.3 196.44-36.15 191.69-32.45 191.69-15.85Q191.69-10.8 194.29-8.03 196.89-5.25 202.24-5.25L202.24-5.25Q204.24-5.25 206.26-6.45 208.29-7.65 209.59-9.95 210.89-12.25 210.89-15.35L210.89-15.35 210.89-33.5 204.84-35.7 206.69-39.3 220.39-39.3 220.39-36.15ZM261.64-40.2L261.64-26.1 258.49-24.75 251.39-35 247.19-35 247.19-5.05 252.84-3.65 251.04 0 232.59 0 232.59-3.2 237.29-6.9 237.29-35 233.19-35 226.09-24.75 222.99-26.1 222.99-40.2 226.84-39.3 257.74-39.3 261.64-40.2Z" opacity="1" transform="matrix(1,0,0,1,0,0)" fill="#77d4fc" class="wordmark-text-0" data-fill-palette-color="primary" id="text-0"></path></svg></g></svg></g><g transform="matrix(1,0,0,1,0,77.55433760006144)"><svg viewBox="0 0 395.52 38.77478458997503" height="38.77478458997503" width="395.52"><g transform="matrix(1,0,0,1,0,0)"><svg width="395.52" viewBox="4.349999904632568 -35.849998474121094 468.7099914550781 45.94999694824219" height="38.77478458997503" data-palette-color="#4b91f1"><path d="M15.55-34.9L15.55-34.9Q19.8-34.9 22.3-34.13 24.8-33.35 25.93-31.4 27.05-29.45 27.05-25.9L27.05-25.9Q27.05-22.2 25.68-20.25 24.3-18.3 21.2-18L21.2-18 21.2-17.8Q25.05-17.45 26.58-15.1 28.1-12.75 28.1-8.6L28.1-8.6Q28.1-5.05 27-3.1 25.9-1.15 23.48-0.38 21.05 0.4 17.1 0.4L17.1 0.4Q14.15 0.4 12.03 0.38 9.9 0.35 8.1 0.25 6.3 0.15 4.35 0L4.35 0 5.05-3.5Q6.15-3.45 9.22-3.4 12.3-3.35 16.4-3.35L16.4-3.35Q19.15-3.35 20.73-3.83 22.3-4.3 22.98-5.6 23.65-6.9 23.65-9.35L23.65-9.35Q23.65-12.05 22.95-13.5 22.25-14.95 20.6-15.55 18.95-16.15 16.1-16.2L16.1-16.2 5-16.2 5-19.55 16.05-19.55Q18.55-19.6 20.03-20.08 21.5-20.55 22.15-21.83 22.8-23.1 22.8-25.4L22.8-25.4Q22.8-27.75 22.1-29 21.4-30.25 19.78-30.7 18.15-31.15 15.35-31.15L15.35-31.15Q12.9-31.15 10.95-31.15 9-31.15 7.53-31.13 6.05-31.1 5.05-31L5.05-31 4.35-34.5Q6.1-34.7 7.68-34.77 9.25-34.85 11.13-34.88 13-34.9 15.55-34.9ZM4.35-34.5L8.65-34.5 8.65 0 4.35 0 4.35-34.5ZM36.78-35L41.03-35 40.98-6.7Q40.98-5.1 41.85-4.28 42.73-3.45 44.33-3.45L44.33-3.45 46.68-3.45 47.18-0.2Q46.73 0 45.9 0.15 45.08 0.3 44.2 0.38 43.33 0.45 42.73 0.45L42.73 0.45Q40.03 0.45 38.4-1.15 36.78-2.75 36.78-5.75L36.78-5.75 36.78-35ZM63.71-24.95L63.71-24.95Q67.91-24.95 70.43-23.7 72.96-22.45 74.06-19.63 75.16-16.8 75.16-12.15L75.16-12.15Q75.16-7.5 74.06-4.67 72.96-1.85 70.43-0.6 67.91 0.65 63.71 0.65L63.71 0.65Q59.56 0.65 57.03-0.6 54.51-1.85 53.38-4.67 52.26-7.5 52.26-12.15L52.26-12.15Q52.26-16.8 53.38-19.63 54.51-22.45 57.03-23.7 59.56-24.95 63.71-24.95ZM63.71-21.35L63.71-21.35Q61.06-21.35 59.53-20.53 58.01-19.7 57.36-17.7 56.71-15.7 56.71-12.15L56.71-12.15Q56.71-8.6 57.36-6.6 58.01-4.6 59.53-3.78 61.06-2.95 63.71-2.95L63.71-2.95Q66.36-2.95 67.91-3.78 69.46-4.6 70.11-6.6 70.76-8.6 70.76-12.15L70.76-12.15Q70.76-15.7 70.11-17.7 69.46-19.7 67.91-20.53 66.36-21.35 63.71-21.35ZM93.29-24.95L93.29-24.95Q97.19-24.95 99.46-24.15 101.74-23.35 102.71-21.65 103.69-19.95 103.69-17.2L103.69-17.2Q103.69-14.55 102.71-12.83 101.74-11.1 99.44-10.28 97.14-9.45 93.24-9.45L93.24-9.45Q89.34-9.45 87.06-10.28 84.79-11.1 83.81-12.8 82.84-14.5 82.84-17.15L82.84-17.15Q82.84-19.9 83.81-21.63 84.79-23.35 87.09-24.15 89.39-24.95 93.29-24.95ZM93.24-21.7L93.24-21.7Q89.59-21.7 88.16-20.68 86.74-19.65 86.74-17.2L86.74-17.2Q86.74-14.8 88.16-13.75 89.59-12.7 93.24-12.7L93.24-12.7Q96.94-12.7 98.34-13.75 99.74-14.8 99.74-17.2L99.74-17.2Q99.74-19.65 98.34-20.68 96.94-21.7 93.24-21.7ZM98.34-24.35L106.54-24.35 106.29-22 100.09-21.5 98.34-24.35ZM86.39-11.05L86.39-11.05 88.84-10.7Q87.99-9.95 87.69-8.88 87.39-7.8 87.86-6.9 88.34-6 89.89-5.75L89.89-5.75 98.99-4.3Q102.44-3.8 103.79-2.15 105.14-0.5 105.14 2.55L105.14 2.55Q105.14 5.4 104.06 7.05 102.99 8.7 100.44 9.4 97.89 10.1 93.54 10.1L93.54 10.1Q90.24 10.1 87.99 9.73 85.74 9.35 84.36 8.47 82.99 7.6 82.39 6.2 81.79 4.8 81.79 2.7L81.79 2.7Q81.79 1.1 82.26 0.03 82.74-1.05 83.76-1.9 84.79-2.75 86.44-3.55L86.44-3.55 89.44-5.2 91.39-4.5 88.94-2.65Q87.94-1.9 87.26-1.18 86.59-0.45 86.26 0.38 85.94 1.2 85.94 2.35L85.94 2.35Q85.94 4.05 86.59 4.95 87.24 5.85 88.89 6.18 90.54 6.5 93.49 6.5L93.49 6.5Q96.44 6.5 98.06 6.15 99.69 5.8 100.34 4.9 100.99 4 100.99 2.35L100.99 2.35Q100.99 1.1 100.66 0.45 100.34-0.2 99.44-0.55 98.54-0.9 96.79-1.15L96.79-1.15 88.04-2.35Q86.49-2.55 85.56-3.35 84.64-4.15 84.29-5.25 83.94-6.35 84.09-7.48 84.24-8.6 84.84-9.58 85.44-10.55 86.39-11.05ZM134.54-35.85L134.54-35.85Q135.34-35.85 136.59-35.83 137.84-35.8 139.14-35.73 140.44-35.65 141.39-35.5L141.39-35.5 141.04-32.35 136.04-32.35Q133.64-32.35 132.67-31.4 131.69-30.45 131.69-28.25L131.69-28.25 131.69 0 127.44 0 127.44-28.7Q127.44-31 128.14-32.58 128.84-34.15 130.39-35 131.94-35.85 134.54-35.85ZM127.69-24.35L139.49-24.35 139.49-21 123.04-21 123.04-24.1 127.69-24.35ZM156.27-24.95L156.27-24.95Q160.47-24.95 163-23.7 165.52-22.45 166.62-19.63 167.72-16.8 167.72-12.15L167.72-12.15Q167.72-7.5 166.62-4.67 165.52-1.85 163-0.6 160.47 0.65 156.27 0.65L156.27 0.65Q152.12 0.65 149.6-0.6 147.07-1.85 145.95-4.67 144.82-7.5 144.82-12.15L144.82-12.15Q144.82-16.8 145.95-19.63 147.07-22.45 149.6-23.7 152.12-24.95 156.27-24.95ZM156.27-21.35L156.27-21.35Q153.62-21.35 152.1-20.53 150.57-19.7 149.92-17.7 149.27-15.7 149.27-12.15L149.27-12.15Q149.27-8.6 149.92-6.6 150.57-4.6 152.1-3.78 153.62-2.95 156.27-2.95L156.27-2.95Q158.92-2.95 160.47-3.78 162.02-4.6 162.67-6.6 163.32-8.6 163.32-12.15L163.32-12.15Q163.32-15.7 162.67-17.7 162.02-19.7 160.47-20.53 158.92-21.35 156.27-21.35ZM176.2-24.35L179.5-24.35 180.05-19.7 180.45-18.95 180.45 0 176.2 0 176.2-24.35ZM190.35-24.95L191.45-24.95 190.95-20.95 189.55-20.95Q187.4-20.95 185.25-20.08 183.1-19.2 180-17.6L180-17.6 179.65-20.25Q182.35-22.45 185.07-23.7 187.8-24.95 190.35-24.95L190.35-24.95ZM218.11-24.95L218.11-24.95Q220.51-24.95 222.86-24.33 225.21-23.7 227.36-22.4L227.36-22.4 227.11-19.75Q224.76-20.45 222.96-20.85 221.16-21.25 219.11-21.25L219.11-21.25Q217.01-21.25 215.73-20.53 214.46-19.8 213.86-17.85 213.26-15.9 213.26-12.3L213.26-12.3Q213.26-8.7 213.83-6.7 214.41-4.7 215.66-3.9 216.91-3.1 218.86-3.1L218.86-3.1Q220.31-3.1 221.48-3.48 222.66-3.85 223.98-4.7 225.31-5.55 227.11-6.85L227.11-6.85 227.51-3.85Q225.51-2 222.96-0.7 220.41 0.6 217.46 0.6L217.46 0.6Q212.86 0.6 210.88-2.65 208.91-5.9 208.91-12.25L208.91-12.25Q208.91-17 209.91-19.78 210.91-22.55 212.96-23.75 215.01-24.95 218.11-24.95ZM226.56-35L230.81-35 230.81 0 227.51 0 227.01-4.25 226.56-4.6 226.56-21.3 226.86-22.05Q226.66-23.45 226.61-24.75 226.56-26.05 226.56-27.5L226.56-27.5 226.56-35ZM250.48-24.95L250.48-24.95Q255.98-24.95 258.46-22.95 260.93-20.95 260.93-17L260.93-17Q260.98-13.75 259.58-11.93 258.18-10.1 255.13-10.1L255.13-10.1 240.93-10.1 240.93-13.4 254.03-13.4Q255.68-13.4 256.18-14.53 256.68-15.65 256.68-17L256.68-17Q256.63-19.35 255.28-20.35 253.93-21.35 250.68-21.35L250.68-21.35Q248.03-21.35 246.51-20.58 244.98-19.8 244.36-17.88 243.73-15.95 243.73-12.5L243.73-12.5Q243.73-8.6 244.51-6.55 245.28-4.5 246.98-3.75 248.68-3 251.48-3L251.48-3Q253.43-3 255.76-3.18 258.08-3.35 259.93-3.6L259.93-3.6 260.38-0.75Q259.23-0.3 257.56 0 255.88 0.3 254.11 0.45 252.33 0.6 250.93 0.6L250.93 0.6Q246.73 0.6 244.18-0.68 241.63-1.95 240.46-4.78 239.28-7.6 239.28-12.25L239.28-12.25Q239.28-17.05 240.46-19.83 241.63-22.6 244.11-23.78 246.58-24.95 250.48-24.95ZM286.16-24.35L290.66-24.35 281.76-1.05Q281.56-0.55 281.19-0.28 280.81 0 280.26 0L280.26 0 276.41 0Q275.91 0 275.51-0.28 275.11-0.55 274.91-1.05L274.91-1.05 266.01-24.35 270.56-24.35 276.56-7.3Q276.96-6.25 277.31-5.15 277.66-4.05 278.01-3.05L278.01-3.05 278.66-3.05Q279.06-4.1 279.44-5.18 279.81-6.25 280.16-7.3L280.16-7.3 286.16-24.35ZM307.04-24.95L307.04-24.95Q312.54-24.95 315.02-22.95 317.49-20.95 317.49-17L317.49-17Q317.54-13.75 316.14-11.93 314.74-10.1 311.69-10.1L311.69-10.1 297.49-10.1 297.49-13.4 310.59-13.4Q312.24-13.4 312.74-14.53 313.24-15.65 313.24-17L313.24-17Q313.19-19.35 311.84-20.35 310.49-21.35 307.24-21.35L307.24-21.35Q304.59-21.35 303.07-20.58 301.54-19.8 300.92-17.88 300.29-15.95 300.29-12.5L300.29-12.5Q300.29-8.6 301.07-6.55 301.84-4.5 303.54-3.75 305.24-3 308.04-3L308.04-3Q309.99-3 312.32-3.18 314.64-3.35 316.49-3.6L316.49-3.6 316.94-0.75Q315.79-0.3 314.12 0 312.44 0.3 310.67 0.45 308.89 0.6 307.49 0.6L307.49 0.6Q303.29 0.6 300.74-0.68 298.19-1.95 297.02-4.78 295.84-7.6 295.84-12.25L295.84-12.25Q295.84-17.05 297.02-19.83 298.19-22.6 300.67-23.78 303.14-24.95 307.04-24.95ZM325.77-35L330.02-35 329.97-6.7Q329.97-5.1 330.84-4.28 331.72-3.45 333.32-3.45L333.32-3.45 335.67-3.45 336.17-0.2Q335.72 0 334.89 0.15 334.07 0.3 333.19 0.38 332.32 0.45 331.72 0.45L331.72 0.45Q329.02 0.45 327.39-1.15 325.77-2.75 325.77-5.75L325.77-5.75 325.77-35ZM352.7-24.95L352.7-24.95Q356.9-24.95 359.42-23.7 361.95-22.45 363.05-19.63 364.15-16.8 364.15-12.15L364.15-12.15Q364.15-7.5 363.05-4.67 361.95-1.85 359.42-0.6 356.9 0.65 352.7 0.65L352.7 0.65Q348.55 0.65 346.02-0.6 343.5-1.85 342.37-4.67 341.25-7.5 341.25-12.15L341.25-12.15Q341.25-16.8 342.37-19.63 343.5-22.45 346.02-23.7 348.55-24.95 352.7-24.95ZM352.7-21.35L352.7-21.35Q350.05-21.35 348.52-20.53 347-19.7 346.35-17.7 345.7-15.7 345.7-12.15L345.7-12.15Q345.7-8.6 346.35-6.6 347-4.6 348.52-3.78 350.05-2.95 352.7-2.95L352.7-2.95Q355.35-2.95 356.9-3.78 358.45-4.6 359.1-6.6 359.75-8.6 359.75-12.15L359.75-12.15Q359.75-15.7 359.1-17.7 358.45-19.7 356.9-20.53 355.35-21.35 352.7-21.35ZM386.58-24.95L386.58-24.95Q391.03-24.95 392.98-21.68 394.93-18.4 394.93-12.05L394.93-12.05Q394.93-7.35 393.93-4.58 392.93-1.8 390.9-0.6 388.88 0.6 385.73 0.6L385.73 0.6Q383.33 0.6 381-0.05 378.68-0.7 376.48-2.05L376.48-2.05 376.73-4.6Q379.08-3.95 380.88-3.53 382.68-3.1 384.68-3.1L384.68-3.1Q386.83-3.1 388.1-3.85 389.38-4.6 389.98-6.55 390.58-8.5 390.58-12.05L390.58-12.05Q390.58-15.5 390.03-17.5 389.48-19.5 388.3-20.38 387.13-21.25 385.18-21.25L385.18-21.25Q383.18-21.25 381.23-20.3 379.28-19.35 376.68-17.4L376.68-17.4 376.28-20.25Q377.63-21.7 379.33-22.75 381.03-23.8 382.9-24.38 384.78-24.95 386.58-24.95ZM372.63-24.35L376.13-24.35 376.58-19.3 376.88-18.65 376.88-3.05 376.68-2.45Q376.83-1.05 376.85 0.25 376.88 1.55 376.88 3L376.88 3 376.88 10.05 372.63 10.05 372.63-24.35ZM413.45-24.95L413.45-24.95Q418.95-24.95 421.43-22.95 423.9-20.95 423.9-17L423.9-17Q423.95-13.75 422.55-11.93 421.15-10.1 418.1-10.1L418.1-10.1 403.9-10.1 403.9-13.4 417-13.4Q418.65-13.4 419.15-14.53 419.65-15.65 419.65-17L419.65-17Q419.6-19.35 418.25-20.35 416.9-21.35 413.65-21.35L413.65-21.35Q411-21.35 409.48-20.58 407.95-19.8 407.33-17.88 406.7-15.95 406.7-12.5L406.7-12.5Q406.7-8.6 407.48-6.55 408.25-4.5 409.95-3.75 411.65-3 414.45-3L414.45-3Q416.4-3 418.73-3.18 421.05-3.35 422.9-3.6L422.9-3.6 423.35-0.75Q422.2-0.3 420.53 0 418.85 0.3 417.08 0.45 415.3 0.6 413.9 0.6L413.9 0.6Q409.7 0.6 407.15-0.68 404.6-1.95 403.43-4.78 402.25-7.6 402.25-12.25L402.25-12.25Q402.25-17.05 403.43-19.83 404.6-22.6 407.08-23.78 409.55-24.95 413.45-24.95ZM432.13-24.35L435.43-24.35 435.98-19.7 436.38-18.95 436.38 0 432.13 0 432.13-24.35ZM446.28-24.95L447.38-24.95 446.88-20.95 445.48-20.95Q443.33-20.95 441.18-20.08 439.03-19.2 435.93-17.6L435.93-17.6 435.58-20.25Q438.28-22.45 441.01-23.7 443.73-24.95 446.28-24.95L446.28-24.95ZM462.11-24.95L462.11-24.95Q463.71-24.95 465.51-24.85 467.31-24.75 469.09-24.6 470.86-24.45 472.36-24.2L472.36-24.2 472.01-21.1Q469.71-21.2 467.39-21.28 465.06-21.35 462.76-21.35L462.76-21.35Q460.51-21.4 459.21-21.25 457.91-21.1 457.34-20.45 456.76-19.8 456.76-18.25L456.76-18.25Q456.76-16.35 457.66-15.75 458.56-15.15 460.31-14.75L460.31-14.75 467.41-13.15Q470.31-12.45 471.69-11 473.06-9.55 473.06-6.45L473.06-6.45Q473.06-3.45 471.94-1.95 470.81-0.45 468.51 0.05 466.21 0.55 462.66 0.55L462.66 0.55Q461.36 0.55 458.79 0.45 456.21 0.35 453.11-0.15L453.11-0.15 453.41-3.25Q454.61-3.2 455.96-3.13 457.31-3.05 458.79-3.05 460.26-3.05 461.81-3.05L461.81-3.05Q464.56-3.05 466.11-3.3 467.66-3.55 468.31-4.28 468.96-5 468.96-6.45L468.96-6.45Q468.96-8.25 467.91-8.85 466.86-9.45 465.11-9.85L465.11-9.85 458.11-11.45Q456.11-11.95 454.91-12.78 453.71-13.6 453.16-14.93 452.61-16.25 452.61-18.25L452.61-18.25Q452.61-21.1 453.61-22.55 454.61-24 456.71-24.5 458.81-25 462.11-24.95Z" opacity="1" transform="matrix(1,0,0,1,0,0)" fill="#4b91f1" class="slogan-text-1" data-fill-palette-color="secondary" id="text-1"></path></svg></g></svg></g></svg></g></svg></g><g transform="matrix(1,0,0,1,84.19544104691074,0)"><svg viewBox="0 0 227.1291179061785 227.1291179061785" height="227.1291179061785" width="227.1291179061785"><g><svg></svg></g><g id="icon-0"><svg viewBox="0 0 227.1291179061785 227.1291179061785" height="227.1291179061785" width="227.1291179061785"><g><path d="M0 113.565c0-62.72 50.845-113.565 113.565-113.565 62.72 0 113.565 50.845 113.564 113.565 0 62.72-50.845 113.565-113.564 113.564-62.72 0-113.565-50.845-113.565-113.564zM113.565 221.471c59.595 0 107.906-48.311 107.906-107.906 0-59.595-48.311-107.906-107.906-107.907-59.595 0-107.906 48.311-107.907 107.907 0 59.595 48.311 107.906 107.907 107.906z" data-fill-palette-color="accent" fill="#4b91f1" stroke="transparent"></path><ellipse rx="112.42891336355835" ry="112.42891336355835" cx="113.56455895308925" cy="113.56455895308925" fill="#4b91f1" stroke="transparent" stroke-width="0" fill-opacity="1" data-fill-palette-color="accent"></ellipse></g><g transform="matrix(1,0,0,1,48.030676618947425,64.89195702647439)"><svg viewBox="0 0 131.06776466828364 97.34520385322972" height="97.34520385322972" width="131.06776466828364"><g><svg xmlns="http://www.w3.org/2000/svg" xmlns:xlink="http://www.w3.org/1999/xlink" version="1.1" x="0" y="0" viewBox="7.5 18.434999465942383 85.0009994506836 63.131004333496094" enable-background="new 0 0 100 100" xml:space="preserve" height="97.34520385322972" width="131.06776466828364" class="icon-s-0" data-fill-palette-color="quaternary" id="s-0"><g fill="#220000" data-fill-palette-color="quaternary"><path d="M89.405 18.435H10.595c-1.706 0-3.095 1.389-3.095 3.095v56.941c0 1.706 1.389 3.095 3.095 3.095h78.811c1.707 0 3.095-1.389 3.095-3.095V77.14 32.027 21.529C92.5 19.823 91.112 18.435 89.405 18.435zM10.595 19.673h78.811c1.023 0 1.857 0.833 1.857 1.856v9.075c-0.068-0.01-0.136-0.021-0.207-0.021H8.951c-0.073 0-0.143 0.011-0.213 0.021v-9.076C8.738 20.506 9.571 19.673 10.595 19.673zM91.263 77.14c0 0.114-0.093 0.206-0.207 0.206H8.951c-0.113 0-0.206-0.092-0.206-0.206V32.027c0-0.113 0.093-0.206 0.206-0.206h82.104c0.114 0 0.207 0.093 0.207 0.206V77.14zM89.405 80.327H10.595c-0.992 0-1.798-0.784-1.848-1.764 0.067 0.01 0.135 0.021 0.204 0.021h82.104c0.068 0 0.133-0.011 0.197-0.02C91.202 79.544 90.396 80.327 89.405 80.327z" fill="#220000" data-fill-palette-color="quaternary"></path><path d="M28.178 27.787c1.45 0 2.63-1.18 2.63-2.63 0-1.451-1.18-2.631-2.63-2.631s-2.631 1.18-2.631 2.631C25.547 26.607 26.728 27.787 28.178 27.787zM28.178 23.765c0.768 0 1.393 0.624 1.393 1.393 0 0.768-0.625 1.393-1.393 1.393-0.769 0-1.393-0.625-1.393-1.393C26.785 24.389 27.409 23.765 28.178 23.765z" fill="#220000" data-fill-palette-color="quaternary"></path><path d="M21.458 27.787c1.451 0 2.631-1.18 2.631-2.63 0-1.451-1.18-2.631-2.631-2.631-1.45 0-2.63 1.18-2.63 2.631C18.828 26.607 20.008 27.787 21.458 27.787zM21.458 23.765c0.769 0 1.393 0.624 1.393 1.393 0 0.768-0.624 1.393-1.393 1.393-0.768 0-1.393-0.625-1.393-1.393C20.065 24.389 20.69 23.765 21.458 23.765z" fill="#220000" data-fill-palette-color="quaternary"></path><path d="M14.738 27.787c1.451 0 2.631-1.18 2.631-2.63 0-1.451-1.18-2.631-2.631-2.631-1.45 0-2.63 1.18-2.63 2.631C12.108 26.607 13.288 27.787 14.738 27.787zM14.738 23.765c0.769 0 1.393 0.624 1.393 1.393 0 0.768-0.624 1.393-1.393 1.393-0.768 0-1.393-0.625-1.393-1.393C13.346 24.389 13.971 23.765 14.738 23.765z" fill="#220000" data-fill-palette-color="quaternary"></path></g><path d="M26.598 65.915c-0.624 0-1.395-0.429-2.289-1.276-1.605-1.519-2.16-2.371-1.2-3.405l8.79-8.811-8.774-8.782c-0.676-0.676-0.57-1.195-0.401-1.57 0.242-0.544 0.814-1.117 1.479-1.781 0.829-0.829 1.542-1.542 2.241-1.542 0.342 0 0.679 0.172 1.033 0.526l11.769 11.755c0.311 0.254 0.521 0.659 0.564 1.134 0.048 0.537-0.134 1.152-0.452 1.533L27.53 65.514C27.243 65.787 26.941 65.915 26.598 65.915zM23.846 42.57c-0.009 0 0.027 0.068 0.154 0.194l9.211 9.221c0.241 0.242 0.241 0.633 0 0.875L24 62.093c-0.093 0.1-0.125 0.147-0.133 0.166 0.012 0.047 0.125 0.377 1.292 1.48 0.979 0.927 1.42 0.938 1.438 0.938v0.619l0.01-0.62c-0.001 0.001-0.001 0.001-0.001 0.001-0.003 0 0.02-0.012 0.061-0.05l11.777-11.767c0.061-0.077 0.151-0.357 0.131-0.589-0.013-0.145-0.063-0.246-0.162-0.328L26.601 40.148c-0.144-0.143-0.215-0.171-0.215-0.171-0.182 0.06-0.886 0.764-1.307 1.184-0.531 0.532-1.077 1.078-1.227 1.413C23.85 42.571 23.848 42.57 23.846 42.57z" fill="#220000" data-fill-palette-color="quaternary"></path><path d="M55.834 71.436H40.498c-1.594 0-1.92-1.234-1.92-3.088s0.326-3.088 1.92-3.088h15.336c1.503 0 1.787 1.085 1.787 3.088C57.621 70.396 57.346 71.436 55.834 71.436zM40.498 66.497c-0.366 0-0.683 0-0.683 1.851s0.316 1.851 0.683 1.851h15.336c0.354 0 0.55 0 0.55-1.851s-0.219-1.851-0.55-1.851H40.498z" fill="#220000" data-fill-palette-color="quaternary"></path></svg></g></svg></g></svg></g></svg></g><g></g></svg></g><defs></defs></svg><rect width="262.06704692592314" height="247.2" fill="none" stroke="none" visibility="hidden"></rect></g></svg></g></svg>