<svg xmlns="http://www.w3.org/2000/svg" version="1.1" xmlns:xlink="http://www.w3.org/1999/xlink" xmlns:svgjs="http://svgjs.dev/svgjs" width="1000" height="1000" viewBox="0 0 1000 1000"><rect width="1000" height="1000" fill="#fafafa"></rect><g transform="matrix(0.7,0,0,0.7,149.87865309538182,214.2815384615384)"><svg viewBox="0 0 302 247" data-background-color="#fafafa" preserveAspectRatio="xMidYMid meet" height="817" width="1000" xmlns="http://www.w3.org/2000/svg" xmlns:xlink="http://www.w3.org/1999/xlink"><g id="tight-bounds" transform="matrix(1,0,0,1,0.05235252170669469,-0.09999999999999432)"><svg viewBox="0 0 301.8952949565866 247.2" height="247.2" width="301.8952949565866"><g><svg viewBox="0 0 395.52 323.8624305624238" height="247.2" width="301.8952949565866"><g transform="matrix(1,0,0,1,0,261.1200606757328)"><svg viewBox="0 0 395.52 62.74236988669099" height="62.74236988669099" width="395.52"><g id="textblocktransform"><svg viewBox="0 0 395.52 62.74236988669099" height="62.74236988669099" width="395.52" id="textblock"><g><svg viewBox="0 0 395.52 62.74236988669099" height="62.74236988669099" width="395.52"><g transform="matrix(1,0,0,1,0,0)"><svg width="395.52" viewBox="1.3 -40.3 260.34 41.3" height="62.74236988669099" data-palette-color="#000000"><path d="M24.3-39.8Q30.05-39.8 34.5-37.33 38.95-34.85 41.38-30.45 43.8-26.05 43.8-20.5L43.8-20.5Q43.8-14.8 40.15-9.98 36.5-5.15 31.08-2.33 25.65 0.5 20.75 0.5L20.75 0.5Q18.55 0.5 16.3 0.25L16.3 0.25Q12.55 0 10.55 0L10.55 0 2.2 0 2.2-3.2 6.9-6.9 6.9-34 1.3-35.7 3.1-39.3 10.5-39.3Q15.1-39.3 19.5-39.6L19.5-39.6Q22.8-39.8 24.3-39.8L24.3-39.8ZM22.2-4.35Q25.2-4.35 27.7-6.15 30.2-7.95 31.63-11.08 33.05-14.2 33.05-18.1L33.05-18.1Q33.05-22.75 31.68-26.58 30.3-30.4 27.48-32.68 24.65-34.95 20.45-34.95L20.45-34.95Q18.5-34.95 16.8-33.95L16.8-33.95 16.8-5.25Q19.1-4.4 22.15-4.4L22.15-4.4 22.2-4.35ZM84.65 0.9L80.75 0 48.7 0 48.7-3.2 53.4-6.9 53.4-34.1 47.8-35.7 49.6-39.3 80.25-39.3 84.15-40.2 84.15-27.1 81-25.75 74.8-35 63.3-35 63.3-22.2 68.7-22.2 72.35-27.6 75.55-27.6 75.55-13.2 71.9-11.4 68.6-17.95 63.3-17.95 63.3-4.3 74.35-4.3 81.5-14.55 84.65-13.25 84.65 0.9ZM134.09-36.15L128.5-31.95 116.05-1.6 106.39 0.95 92.34-33.25 87.19-35.7 89-39.3 108.69-39.3 108.69-36.15 102.94-32.95 113.3-7.6 123.19-31.95 115.84-35.7 117.69-39.3 134.09-39.3 134.09-36.15ZM159.89-40.3Q162.89-40.3 166.89-39.55 170.89-38.8 172.74-37.95L172.74-37.95 172.74-27.05 167.19-27.05Q163.44-34.05 156.99-34.05L156.99-34.05Q154.39-34.05 152.24-32.38 150.09-30.7 148.84-27.75 147.59-24.8 147.59-21.15L147.59-21.15Q147.59-17 148.84-13.58 150.09-10.15 152.67-8.13 155.24-6.1 159.04-6.1L159.04-6.1Q163.69-6.1 172.24-10.7L172.24-10.7 174.39-7.25 165.19-0.1Q162.89 0.55 160.79 0.78 158.69 1 156.24 1L156.24 1Q150.54 1 146.12-1.55 141.69-4.1 139.24-8.58 136.79-13.05 136.79-18.75L136.79-18.75Q136.79-24.6 140.44-29.58 144.09-34.55 149.54-37.43 154.99-40.3 159.89-40.3L159.89-40.3ZM220.39-36.15L215.64-32.45 215.64-15.5Q215.64-10.25 213.01-6.5 210.39-2.75 206.47-0.88 202.54 1 198.84 1L198.84 1Q193.94 1 190.04-0.98 186.14-2.95 183.97-6.43 181.79-9.9 181.79-14.25L181.79-14.25 181.79-34.3 176.14-35.7 177.99-39.3 196.44-39.3 196.44-36.15 191.69-32.45 191.69-15.85Q191.69-10.8 194.29-8.03 196.89-5.25 202.24-5.25L202.24-5.25Q204.24-5.25 206.26-6.45 208.29-7.65 209.59-9.95 210.89-12.25 210.89-15.35L210.89-15.35 210.89-33.5 204.84-35.7 206.69-39.3 220.39-39.3 220.39-36.15ZM261.64-40.2L261.64-26.1 258.49-24.75 251.39-35 247.19-35 247.19-5.05 252.84-3.65 251.04 0 232.59 0 232.59-3.2 237.29-6.9 237.29-35 233.19-35 226.09-24.75 222.99-26.1 222.99-40.2 226.84-39.3 257.74-39.3 261.64-40.2Z" opacity="1" transform="matrix(1,0,0,1,0,0)" fill="#000000" class="wordmark-text-0" data-fill-palette-color="primary" id="text-0"></path></svg></g></svg></g></svg></g></svg></g><g transform="matrix(1,0,0,1,82.01193737550405,0)"><svg viewBox="0 0 231.4961252489919 231.4961252489919" height="231.4961252489919" width="231.4961252489919"><g><svg></svg></g><g id="icon-0"><svg viewBox="0 0 231.4961252489919 231.4961252489919" height="231.4961252489919" width="231.4961252489919"><g><path d="M0 115.748c0-63.926 51.822-115.748 115.748-115.748 63.926 0 115.748 51.822 115.748 115.748 0 63.926-51.822 115.748-115.748 115.748-63.926 0-115.748-51.822-115.748-115.748zM115.748 225.838c60.801 0 110.09-49.289 110.09-110.09 0-60.801-49.289-110.09-110.09-110.09-60.801 0-110.09 49.289-110.09 110.09 0 60.801 49.289 110.09 110.09 110.09z" data-fill-palette-color="accent" fill="#2a8bff" stroke="transparent"></path><ellipse rx="114.59058199825098" ry="114.59058199825098" cx="115.74806262449594" cy="115.74806262449594" fill="#2a8bff" stroke="transparent" stroke-width="0" fill-opacity="1" data-fill-palette-color="accent"></ellipse></g><g transform="matrix(1,0,0,1,46.613930954400246,64.40152709591615)"><svg viewBox="0 0 138.2682633401914 102.69307105715959" height="102.69307105715959" width="138.2682633401914"><g><svg xmlns="http://www.w3.org/2000/svg" xmlns:xlink="http://www.w3.org/1999/xlink" version="1.1" x="0" y="0" viewBox="7.5 18.435 85.001 63.131" enable-background="new 0 0 100 100" xml:space="preserve" height="102.69307105715959" width="138.2682633401914" class="icon-z$-0" data-fill-palette-color="quaternary" id="z$-0"><g fill="#0a1627" data-fill-palette-color="quaternary"><path d="M89.405 18.435H10.595c-1.706 0-3.095 1.389-3.095 3.095v56.941c0 1.706 1.389 3.095 3.095 3.095h78.811c1.707 0 3.095-1.389 3.095-3.095V77.14 32.027 21.529C92.5 19.823 91.112 18.435 89.405 18.435zM10.595 19.673h78.811c1.023 0 1.857 0.833 1.857 1.856v9.075c-0.068-0.01-0.136-0.021-0.207-0.021H8.951c-0.073 0-0.143 0.011-0.213 0.021v-9.076C8.738 20.506 9.571 19.673 10.595 19.673zM91.263 77.14c0 0.114-0.093 0.206-0.207 0.206H8.951c-0.113 0-0.206-0.092-0.206-0.206V32.027c0-0.113 0.093-0.206 0.206-0.206h82.104c0.114 0 0.207 0.093 0.207 0.206V77.14zM89.405 80.327H10.595c-0.992 0-1.798-0.784-1.848-1.764 0.067 0.01 0.135 0.021 0.204 0.021h82.104c0.068 0 0.133-0.011 0.197-0.02C91.202 79.544 90.396 80.327 89.405 80.327z" fill="#0a1627" data-fill-palette-color="quaternary"></path><path d="M28.178 27.787c1.45 0 2.63-1.18 2.63-2.63 0-1.451-1.18-2.631-2.63-2.631s-2.631 1.18-2.631 2.631C25.547 26.607 26.728 27.787 28.178 27.787zM28.178 23.765c0.768 0 1.393 0.624 1.393 1.393 0 0.768-0.625 1.393-1.393 1.393-0.769 0-1.393-0.625-1.393-1.393C26.785 24.389 27.409 23.765 28.178 23.765z" fill="#0a1627" data-fill-palette-color="quaternary"></path><path d="M21.458 27.787c1.451 0 2.631-1.18 2.631-2.63 0-1.451-1.18-2.631-2.631-2.631-1.45 0-2.63 1.18-2.63 2.631C18.828 26.607 20.008 27.787 21.458 27.787zM21.458 23.765c0.769 0 1.393 0.624 1.393 1.393 0 0.768-0.624 1.393-1.393 1.393-0.768 0-1.393-0.625-1.393-1.393C20.065 24.389 20.69 23.765 21.458 23.765z" fill="#0a1627" data-fill-palette-color="quaternary"></path><path d="M14.738 27.787c1.451 0 2.631-1.18 2.631-2.63 0-1.451-1.18-2.631-2.631-2.631-1.45 0-2.63 1.18-2.63 2.631C12.108 26.607 13.288 27.787 14.738 27.787zM14.738 23.765c0.769 0 1.393 0.624 1.393 1.393 0 0.768-0.624 1.393-1.393 1.393-0.768 0-1.393-0.625-1.393-1.393C13.346 24.389 13.971 23.765 14.738 23.765z" fill="#0a1627" data-fill-palette-color="quaternary"></path></g><path d="M26.598 65.915c-0.624 0-1.395-0.429-2.289-1.276-1.605-1.519-2.16-2.371-1.2-3.405l8.79-8.811-8.774-8.782c-0.676-0.676-0.57-1.195-0.401-1.57 0.242-0.544 0.814-1.117 1.479-1.781 0.829-0.829 1.542-1.542 2.241-1.542 0.342 0 0.679 0.172 1.033 0.526l11.769 11.755c0.311 0.254 0.521 0.659 0.564 1.134 0.048 0.537-0.134 1.152-0.452 1.533L27.53 65.514C27.243 65.787 26.941 65.915 26.598 65.915zM23.846 42.57c-0.009 0 0.027 0.068 0.154 0.194l9.211 9.221c0.241 0.242 0.241 0.633 0 0.875L24 62.093c-0.093 0.1-0.125 0.147-0.133 0.166 0.012 0.047 0.125 0.377 1.292 1.48 0.979 0.927 1.42 0.938 1.438 0.938v0.619l0.01-0.62c-0.001 0.001-0.001 0.001-0.001 0.001-0.003 0 0.02-0.012 0.061-0.05l11.777-11.767c0.061-0.077 0.151-0.357 0.131-0.589-0.013-0.145-0.063-0.246-0.162-0.328L26.601 40.148c-0.144-0.143-0.215-0.171-0.215-0.171-0.182 0.06-0.886 0.764-1.307 1.184-0.531 0.532-1.077 1.078-1.227 1.413C23.85 42.571 23.848 42.57 23.846 42.57z" fill="#0a1627" data-fill-palette-color="quaternary"></path><path d="M55.834 71.436H40.498c-1.594 0-1.92-1.234-1.92-3.088s0.326-3.088 1.92-3.088h15.336c1.503 0 1.787 1.085 1.787 3.088C57.621 70.396 57.346 71.436 55.834 71.436zM40.498 66.497c-0.366 0-0.683 0-0.683 1.851s0.316 1.851 0.683 1.851h15.336c0.354 0 0.55 0 0.55-1.851s-0.219-1.851-0.55-1.851H40.498z" fill="#0a1627" data-fill-palette-color="quaternary"></path></svg></g></svg></g></svg></g></svg></g><g></g></svg></g><defs></defs></svg><rect width="301.8952949565866" height="247.2" fill="none" stroke="none" visibility="hidden"></rect></g></svg></g></svg>